<svg width="16" height="14" viewBox="0 0 16 14" fill="none" xmlns="http://www.w3.org/2000/svg">
<path d="M1.41872 10.4886C1.11457 8.51164 0.804272 5.477 0.500122 3.5C0.432672 3.06175 0.931322 2.76285 1.28602 3.0289C2.23362 3.7396 3.18732 5.50794 4.13492 6.21864C4.44692 6.45264 4.89142 6.37649 5.10772 6.05199L7.50008 0.99999C7.75018 0.62484 8.30138 0.62484 8.55148 0.99999L10.8924 6.05199C11.1087 6.37649 11.5532 6.45259 11.8652 6.21864C12.8128 5.50794 14.2665 3.7396 15.2141 3.0289C15.5688 2.76285 16.0675 3.06175 16.0001 3.5C15.6959 5.477 14.8856 8.51164 14.5815 10.4886H1.41872Z" fill="#FFC016"/>
<path d="M13.8952 13.7793H2.10495C1.72595 13.7793 1.4187 13.472 1.4187 13.093V11.5855H14.5815V13.093C14.5814 13.472 14.2742 13.7793 13.8952 13.7793Z" fill="#FFC016"/>
</svg>
